<svg xmlns="http://www.w3.org/2000/svg" width="64" height="64" fill="none"><path fill="#445CDA" fill-rule="evenodd" d="M22.587 35.725c0-.736.597-1.333 1.333-1.333h3.2a1.333 1.333 0 1 1 0 2.667h-3.2a1.333 1.333 0 0 1-1.333-1.334zm0-9.6c0-.736.597-1.333 1.333-1.333h12a1.333 1.333 0 1 1 0 2.667h-12a1.333 1.333 0 0 1-1.333-1.334zm0 4.8c0-.736.597-1.333 1.333-1.333h12a1.333 1.333 0 0 1 0 2.666h-12a1.333 1.333 0 0 1-1.333-1.333z" clip-rule="evenodd"/><path fill="#445CDA" fill-rule="evenodd" d="M22.977 34.783c.52-.521 1.365-.521 1.886 0l8.485 8.485a1.333 1.333 0 0 1-1.886 1.886l-8.485-8.486a1.333 1.333 0 0 1 0-1.885Z" clip-rule="evenodd"/><path fill="#445CDA" fill-rule="evenodd" d="M30.587 30.925c0-1.816-1.629-3.466-3.867-3.466v-2.667c3.506 0 6.533 2.647 6.533 6.133s-3.027 6.134-6.533 6.134v-2.667c2.238 0 3.867-1.65 3.867-3.467Z" clip-rule="evenodd"/><path fill="#2B3151" fill-rule="evenodd" d="M12.587 12.792a4 4 0 0 0-4 4v34.666a4 4 0 0 0 4 4h34.666a4 4 0 0 0 4-4V28.792a1.333 1.333 0 1 1 2.667 0v22.666a6.667 6.667 0 0 1-6.667 6.667H12.587a6.667 6.667 0 0 1-6.667-6.667V16.792a6.667 6.667 0 0 1 6.667-6.667h22.666a1.333 1.333 0 0 1 0 2.667H12.587Z" clip-rule="evenodd"/><path fill="#2B3151" fill-rule="evenodd" d="m46.342 19.471 7.104-7.075a1.333 1.333 0 1 0-1.882-1.889l-7.078 7.05v-5.23a1.333 1.333 0 1 0-2.667 0v8.231c-.07.411.052.85.37 1.168l.011.012c.242.247.58.4.953.4h8.477a1.333 1.333 0 1 0 0-2.667h-5.288Z" clip-rule="evenodd"/></svg>